<svg alt="Rv and Campsite Animation" xmlns="http://www.w3.org/2000/svg" xmlns:xlink="http://www.w3.org/1999/xlink" version="1.1" preserveAspectRatio="xMidYMid meet" viewBox="0 -200 640 640" height="100%"><defs><path d="M330.63 338.16L640 2.5L640 471.45L212.48 471.45L330.63 338.16Z" id="aIPMYlkfI"></path><path d="M285.64 395.87C281.55 395.5 278.45 393.12 278.73 390.57C279.01 388.01 282.56 386.24 286.66 386.61C290.76 386.98 293.86 389.36 293.58 391.91C293.3 394.46 289.74 396.24 285.64 395.87Z" id="b2ouZiO6r"></path><path d="M277.77 391.03C279.53 393.58 278.63 396.98 275.76 398.62C272.89 400.26 269.13 399.53 267.37 396.98C265.6 394.44 266.5 391.04 269.37 389.4C272.24 387.75 276 388.49 277.77 391.03Z" id="b3qgHi4uNY"></path><path d="M298.82 398.79L307.02 401.44L293.73 408.62L273.61 409.95L259.32 403.3L266.93 402.03L298.82 398.79Z" id="b291ZkeEN5"></path><path d="M282 399.49C279.47 394.71 281.91 387.89 289.32 379.03C296.73 370.17 296.05 362.55 287.27 356.17C293.51 363.96 292.05 371.05 282.88 377.43C273.71 383.81 270.3 390.72 272.64 398.16L282 399.49Z" id="bnJcATMW0"></path><path d="M290.28 402.89C288.7 399.49 290.22 394.63 294.84 388.33C299.45 382.02 299.03 376.6 293.56 372.06C297.45 377.61 296.54 382.65 290.83 387.19C285.12 391.73 282.99 396.65 284.45 401.95L290.28 402.89Z" id="bpuDy3wG7"></path><path d="M301.98 395.52C301.98 397.81 299.68 399.68 296.85 399.68C294.03 399.68 291.73 397.81 291.73 395.52C291.73 393.22 294.03 391.36 296.85 391.36C299.68 391.36 301.98 393.22 301.98 395.52Z" id="b1BhHgcHc4"></path><path d="M286.51 403.51C288.72 397.58 286.6 389.12 280.15 378.14C273.7 367.16 274.29 357.72 281.93 349.81C276.5 359.48 277.77 368.26 285.75 376.17C293.73 384.07 296.69 392.63 294.66 401.86L286.51 403.51Z" id="dGcDXcR2t"></path><path d="M278.56 403.93C280.14 399.99 278.62 394.38 274 387.08C269.39 379.79 269.81 373.52 275.28 368.27C271.39 374.68 272.3 380.52 278.01 385.77C283.72 391.02 285.84 396.71 284.39 402.84L278.56 403.93Z" id="m1hgvEPrfz"></path><path d="M268.47 403.83C264.38 403.46 261.28 401.08 261.56 398.53C261.84 395.97 265.39 394.2 269.49 394.57C273.59 394.94 276.69 397.32 276.41 399.87C276.13 402.43 272.57 404.2 268.47 403.83Z" id="d11mxbJK3a"></path><path d="M296.77 398.29C298.18 400.2 296.72 403.33 293.51 405.28C290.3 407.24 286.55 407.27 285.14 405.36C283.74 403.46 285.2 400.32 288.41 398.37C291.62 396.42 295.37 396.38 296.77 398.29Z" id="ane4rrGjm"></path><path d="M284.6 401.14C286.36 403.69 285.46 407.09 282.59 408.73C279.72 410.37 275.96 409.64 274.2 407.09C272.43 404.55 273.33 401.15 276.2 399.51C279.07 397.86 282.83 398.6 284.6 401.14Z" id="c2yo3Jl53S"></path><path d="M538.14 184.88L510.53 198.94L531.85 210.48L486.48 216.25L492.68 232.84L433.64 236.8L436.61 254.47L367.36 264.56L375.01 235L392.85 232.84L407.72 205.07L425.99 210.48L442.01 188.13L465.92 186.32L495.66 192.45L522.43 182L538.14 184.88Z" id="al5gTy23s"></path><path d="M532.84 148.51L532.84 186.38L521.79 186.38L523.06 148.51L532.84 148.51Z" id="d1QeFTI6VX"></path><path d="M532.41 186.38L542.61 183.86L542.61 148.51L530.65 148.51L532.41 186.38Z" id="b8sWZnyif"></path><path d="M530.3 48.19L497.05 162.28L441.36 132.89L530.3 48.19Z" id="c2jn4p8OQX"></path><path d="M584.58 161.26L496.16 162.25L530.3 48.19L584.58 161.26Z" id="aJugik9y"></path><path d="M529.32 48.98L615.69 126.53L583.65 161.08L529.32 48.98Z" id="b3HGaassO"></path><path d="M535.28 7.36L508.27 121.45L463.03 92.06L535.28 7.36Z" id="bkCa3EoHd"></path><path d="M579.37 120.43L507.55 121.42L535.28 7.36L579.37 120.43Z" id="d11DqlifRR"></path><path d="M534.48 8.15L604.63 85.7L578.61 120.25L534.48 8.15Z" id="b8NekQU9w"></path><path d="M532.38 -2.81L510.4 75.93L473.58 55.65L532.38 -2.81Z" id="b6iEKEQws"></path><path d="M568.26 75.23L509.81 75.91L532.38 -2.81L568.26 75.23Z" id="bgFzZ3iAy"></path><path d="M531.73 -2.26L588.83 51.26L567.65 75.1L531.73 -2.26Z" id="ezJsGZrpw"></path><path d="M565.56 86.1L590.21 70.59L580.86 60.13L565.56 74.56L509.89 75.93L565.56 86.1Z" id="dN6xlnZaA"></path><path d="M590.21 105.23L577.85 120.02L507.33 121.45L568.5 130.48L596.54 109.21L590.21 105.23Z" id="b8XN3gQqj6"></path><path d="M437.39 353.11L609.48 284.82L555.63 262.5L382.84 330.58L437.39 353.11Z" id="axJaFsNs6"></path><path d="M589.68 272.08L574.92 281.72L591.65 288.82L589.68 272.08Z" id="a2mBArIiPV"></path><path d="M564.42 282.57L549.66 292.21L566.39 299.31L564.42 282.57Z" id="a1FVhKjotw"></path><path d="M470.97 320.09L456.22 329.73L472.95 336.84L470.97 320.09Z" id="a3AGcszu"></path><path d="M616.92 200.52L616.92 264.88L435.07 338.17L435.07 318.64L444.83 268.81L616.92 200.52Z" id="ceOmk6yGx"></path><path d="M376.28 286.35C376.28 294.66 377.76 301.42 379.58 301.42C381.39 301.42 382.87 294.66 382.87 286.35C382.87 278.03 381.39 271.28 379.58 271.28C377.76 271.28 376.28 278.03 376.28 286.35Z" id="d3BR6GvaS"></path><path d="" id="cAjfNNM9B"></path><path d="M444.83 269.38L616.92 201.09L563.07 178.77L390.28 246.85L444.83 269.38Z" id="b2OfCxnR3S"></path><path d="M435.07 318.64L379.82 296.51L379.82 315.11L435.07 338.17L435.07 318.64Z" id="aKSR26NSs"></path><path d="M435.07 319.21L379.82 297.07L390.28 246.48L445.68 269.38L435.07 319.21Z" id="ff5gpukYF"></path><path d="M616.92 201.09L601.7 207.41L577.79 280.45L593.29 275.12L616.92 214.11L616.92 201.09Z" id="b1nbx2CN5"></path><path d="M582.27 271.2C582.27 281.17 587.82 289.26 594.65 289.26C601.49 289.26 607.04 281.17 607.04 271.2C607.04 261.22 601.49 253.13 594.65 253.13C587.82 253.13 582.27 261.22 582.27 271.2Z" id="b2V34WkDIF"></path><path d="M566.63 287L589.41 212.62L568.33 220.1L543.8 294.1L566.63 287Z" id="b128zhlXH"></path><path d="M590.26 271.2C590.26 276.47 592.83 280.75 595.98 280.75C599.14 280.75 601.7 276.47 601.7 271.2C601.7 265.92 599.14 261.64 595.98 261.64C592.83 261.64 590.26 265.92 590.26 271.2Z" id="gKKu00ePo"></path><path d="M557.01 281.68C557.01 291.66 562.56 299.75 569.4 299.75C576.23 299.75 581.78 291.66 581.78 281.68C581.78 271.71 576.23 263.62 569.4 263.62C562.56 263.62 557.01 271.71 557.01 281.68Z" id="n2ftgxMFUT"></path><path d="M510.38 243.62L475.95 322.37L492.56 315.59L535.17 233.83L510.38 243.62Z" id="borexs0fq"></path><path d="M565.01 281.68C565.01 286.96 567.57 291.24 570.73 291.24C573.88 291.24 576.45 286.96 576.45 281.68C576.45 276.41 573.88 272.13 570.73 272.13C567.57 272.13 565.01 276.41 565.01 281.68Z" id="dWhETntmM"></path><path d="M463.57 319.21C463.57 329.18 469.12 337.28 475.95 337.28C482.79 337.28 488.34 329.18 488.34 319.21C488.34 309.24 482.79 301.14 475.95 301.14C469.12 301.14 463.57 309.24 463.57 319.21Z" id="b2DNserU6h"></path><path d="M471.56 319.21C471.56 324.48 474.13 328.76 477.28 328.76C480.44 328.76 483 324.48 483 319.21C483 313.94 480.44 309.65 477.28 309.65C474.13 309.65 471.56 313.94 471.56 319.21Z" id="aMeunvADO"></path><path d="M553.31 210.71L553.31 195.73L579.71 185.59L579.71 200.6L553.31 210.71Z" id="e1JsafAwhR"></path><path d="" id="g8qeXQc7H"></path><path d="M553.31 195.39L534.21 187.84L560.12 177.7L579.71 185.59L553.31 195.39Z" id="b1vsJHBzG0"></path><path d="M534.62 203.75L534.62 187.81L553.73 195.68L553.73 211L534.62 203.75Z" id="brZD5DLSE"></path><path d="M467.87 241.66L467.87 226.68L494.26 216.54L494.26 231.55L467.87 241.66Z" id="etFtGe4BS"></path><path d="" id="a3wgDxa4CF"></path><path d="M467.87 226.34L448.76 218.79L474.67 208.65L494.26 216.54L467.87 226.34Z" id="cXzPnsNvS"></path><path d="M449.17 234.71L449.17 218.76L468.28 226.63L468.28 241.95L449.17 234.71Z" id="aj2DFn8qY"></path><path d="M459.62 272.08L459.62 299.31L445.29 305.26L451.88 275.12L459.62 272.08Z" id="b6UOmGGLM"></path><path d="M501.98 254.68L501.98 272.48L473.96 284.07L473.96 266.22L501.98 254.68Z" id="kptvsZZbS"></path><path d="" id="b3apeD2TSZ"></path><path d="M568.91 227.08L568.91 253.13L581.78 247.92L581.78 222.25L568.91 227.08Z" id="b1JH1HG2t0"></path><path d="M423.57 326.17C423.57 330.01 425.48 333.13 427.82 333.13C430.17 333.13 432.08 330.01 432.08 326.17C432.08 322.33 430.17 319.21 427.82 319.21C425.48 319.21 423.57 322.33 423.57 326.17Z" id="aDoqExflv"></path><path d="M381.76 308.92C381.76 312.76 383.67 315.88 386.02 315.88C388.37 315.88 390.28 312.76 390.28 308.92C390.28 305.08 388.37 301.96 386.02 301.96C383.67 301.96 381.76 305.08 381.76 308.92Z" id="e1RGRlTIQL"></path><path d="" id="a3gDXO9Ow"></path><path d="M436.38 308.79C436.38 317.11 437.85 323.86 439.67 323.86C441.49 323.86 442.97 317.11 442.97 308.79C442.97 300.48 441.49 293.72 439.67 293.72C437.85 293.72 436.38 300.48 436.38 308.79Z" id="b3Z3YXHirW"></path><path d="M536.27 478.12L508.67 492.18L529.98 503.72L484.61 509.49L490.82 526.07L431.77 530.04L434.74 547.71L365.5 557.8L373.15 528.24L390.99 526.07L405.86 498.31L424.12 503.72L440.14 481.37L464.06 479.56L493.79 485.69L520.57 475.24L536.27 478.12Z" id="cwMjsyzvH"></path><path d="M530.97 441.75L530.97 479.62L519.92 479.62L521.2 441.75L530.97 441.75Z" id="aa0PM4TpLg"></path><path d="M530.55 479.62L540.75 477.1L540.75 441.75L528.78 441.75L530.55 479.62Z" id="cZuzxhmid"></path><path d="M528.43 341.43L495.19 455.52L439.49 426.13L528.43 341.43Z" id="b2lpDA4jYq"></path><path d="M582.71 454.5L494.29 455.49L528.43 341.43L582.71 454.5Z" id="aZ3aTC6f"></path><path d="M527.46 342.22L613.82 419.77L581.78 454.32L527.46 342.22Z" id="b1nHrxozUJ"></path><path d="M533.41 300.6L506.41 414.69L461.17 385.3L533.41 300.6Z" id="a29Yrlyzsc"></path><path d="M577.5 413.67L505.68 414.66L533.41 300.6L577.5 413.67Z" id="e17zmoPu7F"></path><path d="M532.62 301.39L602.77 378.94L576.75 413.49L532.62 301.39Z" id="b1C5jMAAie"></path><path d="M530.51 290.43L508.53 369.17L471.71 348.88L530.51 290.43Z" id="gx72jWlYP"></path><path d="M566.4 368.47L507.94 369.15L530.51 290.43L566.4 368.47Z" id="cHyYQjR1S"></path><path d="M529.87 290.97L586.96 344.5L565.78 368.34L529.87 290.97Z" id="b2SPdXsRQX"></path><path d="M563.7 379.34L588.35 363.83L579 353.37L563.7 367.8L508.02 369.17L563.7 379.34Z" id="b4ERZ45rV"></path><path d="M588.35 398.47L575.99 413.26L505.47 414.69L566.64 423.72L594.68 402.45L588.35 398.47Z" id="c6STEcZV"></path><path d="M266.82 340.06L276.82 340.06L276.82 351.56L266.82 351.56L266.82 340.06Z" id="aj3ee4qFq"></path><path d="M272.77 345.3C272.77 348.74 269.19 351.54 264.79 351.54C260.39 351.54 256.82 348.74 256.82 345.3C256.82 341.85 260.39 339.06 264.79 339.06C269.19 339.06 272.77 341.85 272.77 345.3Z" id="a1ECiKRemS"></path><path d="M281.48 348.75C281.48 352.2 277.91 354.99 273.51 354.99C269.11 354.99 265.54 352.2 265.54 348.75C265.54 345.31 269.11 342.51 273.51 342.51C277.91 342.51 281.48 345.31 281.48 348.75Z" id="c4j8F2Jsm3"></path><path d="M281.31 342.87C281.31 346.32 277.74 349.11 273.33 349.11C268.93 349.11 265.36 346.32 265.36 342.87C265.36 339.43 268.93 336.64 273.33 336.64C277.74 336.64 281.31 339.43 281.31 342.87Z" id="ekW16vDWn"></path><path d="M289.82 347.28C289.82 350.72 286.25 353.52 281.85 353.52C277.45 353.52 273.87 350.72 273.87 347.28C273.87 343.84 277.45 341.04 281.85 341.04C286.25 341.04 289.82 343.84 289.82 347.28Z" id="a2vqH5L7qO"></path><path d="M288.17 337.06L298.17 337.06L298.17 348.56L288.17 348.56L288.17 337.06Z" id="l2lX9QQGQ"></path><path d="M294.96 342.3C294.96 345.74 291.39 348.54 286.99 348.54C282.59 348.54 279.01 345.74 279.01 342.3C279.01 338.85 282.59 336.06 286.99 336.06C291.39 336.06 294.96 338.85 294.96 342.3Z" id="dGDRmEsLM"></path><path d="M303.68 345.75C303.68 349.2 300.11 351.99 295.71 351.99C291.31 351.99 287.73 349.2 287.73 345.75C287.73 342.31 291.31 339.51 295.71 339.51C300.11 339.51 303.68 342.31 303.68 345.75Z" id="b2aqtTyx1e"></path><path d="M303.5 339.87C303.5 343.32 299.93 346.11 295.53 346.11C291.13 346.11 287.56 343.32 287.56 339.87C287.56 336.43 291.13 333.64 295.53 333.64C299.93 333.64 303.5 336.43 303.5 339.87Z" id="cM0jIs0Vo"></path><path d="M312.02 344.28C312.02 347.72 308.45 350.52 304.04 350.52C299.64 350.52 296.07 347.72 296.07 344.28C296.07 340.84 299.64 338.04 304.04 338.04C308.45 338.04 312.02 340.84 312.02 344.28Z" id="baxvtoQdu"></path></defs><g><g><use xlink:href="#aIPMYlkfI" opacity="1" fill="#bdcd87" fill-opacity="1"></use></g><g><g><use xlink:href="#b2ouZiO6r" opacity="1" fill="#a7a7a7" fill-opacity="1"></use></g><g><use xlink:href="#b3qgHi4uNY" opacity="1" fill="#716f6f" fill-opacity="1"></use></g><g><use xlink:href="#b291ZkeEN5" opacity="0.62" fill="#595858" fill-opacity="1"></use></g><g class="flame ts-4"><use xlink:href="#bnJcATMW0" opacity="1" fill="#f4cd50" fill-opacity="1"></use></g><g class="flame ts-6"><use xlink:href="#bpuDy3wG7" opacity="1" fill="#f4cd50" fill-opacity="1"></use></g><g><use xlink:href="#b1BhHgcHc4" opacity="1" fill="#716f6f" fill-opacity="1"></use></g><g class="flame ts-0"><use xlink:href="#dGcDXcR2t" opacity="1" fill="#f8934d" fill-opacity="1"></use></g><g class="flame ts-2"><use xlink:href="#m1hgvEPrfz" opacity="1" fill="#f8934d" fill-opacity="1"></use></g><g><use xlink:href="#d11mxbJK3a" opacity="1" fill="#a7a7a7" fill-opacity="1"></use></g><g><use xlink:href="#ane4rrGjm" opacity="1" fill="#a7a7a7" fill-opacity="1"></use></g><g><use xlink:href="#c2yo3Jl53S" opacity="1" fill="#716f6f" fill-opacity="1"></use></g></g><g><g><use xlink:href="#al5gTy23s" opacity="0.66" fill="#898989" fill-opacity="1"></use></g><g><g><use xlink:href="#d1QeFTI6VX" opacity="1" fill="#6d613a" fill-opacity="1"></use></g><g><use xlink:href="#b8sWZnyif" opacity="1" fill="#bb9861" fill-opacity="1"></use></g></g><g><use xlink:href="#c2jn4p8OQX" opacity="1" fill="#85a061" fill-opacity="1"></use></g><g><use xlink:href="#aJugik9y" opacity="1" fill="#98bb4c" fill-opacity="1"></use></g><g><use xlink:href="#b3HGaassO" opacity="1" fill="#a3ce75" fill-opacity="1"></use></g><g><g><use xlink:href="#bkCa3EoHd" opacity="1" fill="#85a061" fill-opacity="1"></use></g><g><use xlink:href="#d11DqlifRR" opacity="1" fill="#98bb4c" fill-opacity="1"></use></g><g><use xlink:href="#b8NekQU9w" opacity="1" fill="#a3ce75" fill-opacity="1"></use></g></g><g><g><use xlink:href="#b6iEKEQws" opacity="1" fill="#85a061" fill-opacity="1"></use></g><g><use xlink:href="#bgFzZ3iAy" opacity="1" fill="#98bb4c" fill-opacity="1"></use></g><g><use xlink:href="#ezJsGZrpw" opacity="1" fill="#a3ce75" fill-opacity="1"></use></g></g><g><use xlink:href="#dN6xlnZaA" opacity="0.4" fill="#7c7c7c" fill-opacity="1"></use></g><g><use xlink:href="#b8XN3gQqj6" opacity="0.43" fill="#898989" fill-opacity="1"></use></g></g><g><g><use xlink:href="#axJaFsNs6" opacity="1" fill="#717171" fill-opacity="1"></use></g><g><use xlink:href="#a2mBArIiPV" opacity="1" fill="#4e4e4e" fill-opacity="1"></use></g><g><use xlink:href="#a1FVhKjotw" opacity="1" fill="#4e4e4e" fill-opacity="1"></use></g><g><use xlink:href="#a3AGcszu" opacity="1" fill="#4e4e4e" fill-opacity="1"></use></g><g><use xlink:href="#ceOmk6yGx" opacity="1" fill="#dddddd" fill-opacity="1"></use></g><g><use xlink:href="#d3BR6GvaS" opacity="1" fill="#898989" fill-opacity="1"></use></g><g><g><use xlink:href="#cAjfNNM9B" opacity="1" fill-opacity="0" stroke="#000000" stroke-width="1" stroke-opacity="1"></use></g></g><g><use xlink:href="#b2OfCxnR3S" opacity="1" fill="#ffffff" fill-opacity="1"></use></g><g><use xlink:href="#aKSR26NSs" opacity="1" fill="#909090" fill-opacity="1"></use></g><g><use xlink:href="#ff5gpukYF" opacity="1" fill="#6fd8ff" fill-opacity="1"></use></g><g><use xlink:href="#b1nbx2CN5" opacity="1" fill="#45beab" fill-opacity="1"></use></g><g><use xlink:href="#b2V34WkDIF" opacity="1" fill="#4e4e4e" fill-opacity="1"></use></g><g><use xlink:href="#b128zhlXH" opacity="1" fill="#c74d4d" fill-opacity="1"></use></g><g><use xlink:href="#gKKu00ePo" opacity="1" fill="#dddddd" fill-opacity="1"></use></g><g><use xlink:href="#n2ftgxMFUT" opacity="1" fill="#4e4e4e" fill-opacity="1"></use></g><g><use xlink:href="#borexs0fq" opacity="1" fill="#7da732" fill-opacity="1"></use></g><g><use xlink:href="#dWhETntmM" opacity="1" fill="#dddddd" fill-opacity="1"></use></g><g><use xlink:href="#b2DNserU6h" opacity="1" fill="#4e4e4e" fill-opacity="1"></use></g><g><use xlink:href="#aMeunvADO" opacity="1" fill="#dddddd" fill-opacity="1"></use></g><g><g><use xlink:href="#e1JsafAwhR" opacity="1" fill="#dddddd" fill-opacity="1"></use></g><g><g><use xlink:href="#g8qeXQc7H" opacity="1" fill-opacity="0" stroke="#4e0f0f" stroke-width="1" stroke-opacity="1"></use></g></g><g><use xlink:href="#b1vsJHBzG0" opacity="1" fill="#ffffff" fill-opacity="1"></use></g><g><use xlink:href="#brZD5DLSE" opacity="1" fill="#909090" fill-opacity="1"></use></g></g><g><g><use xlink:href="#etFtGe4BS" opacity="1" fill="#dddddd" fill-opacity="1"></use></g><g><g><use xlink:href="#a3wgDxa4CF" opacity="1" fill-opacity="0" stroke="#4e0f0f" stroke-width="1" stroke-opacity="1"></use></g></g><g><use xlink:href="#cXzPnsNvS" opacity="1" fill="#ffffff" fill-opacity="1"></use></g><g><use xlink:href="#aj2DFn8qY" opacity="1" fill="#909090" fill-opacity="1"></use></g></g><g><use xlink:href="#b6UOmGGLM" opacity="1" fill="#6fd8ff" fill-opacity="1"></use></g><g><use xlink:href="#kptvsZZbS" opacity="1" fill="#6fd8ff" fill-opacity="1"></use></g><g><g><use xlink:href="#b3apeD2TSZ" opacity="1" fill-opacity="0" stroke="#000000" stroke-width="1" stroke-opacity="1"></use></g></g><g><use xlink:href="#b1JH1HG2t0" opacity="1" fill="#6fd8ff" fill-opacity="1"></use></g><g><use xlink:href="#aDoqExflv" opacity="1" fill="#ffffff" fill-opacity="1"></use></g><g><use xlink:href="#e1RGRlTIQL" opacity="1" fill="#ffffff" fill-opacity="1"></use></g><g><g><use xlink:href="#a3gDXO9Ow" opacity="1" fill-opacity="0" stroke="#8c8c8c" stroke-width="1" stroke-opacity="1"></use></g></g><g><use xlink:href="#b3Z3YXHirW" opacity="1" fill="#898989" fill-opacity="1"></use></g></g><g><g><use xlink:href="#cwMjsyzvH" opacity="0.66" fill="#898989" fill-opacity="1"></use></g><g><g><use xlink:href="#aa0PM4TpLg" opacity="1" fill="#6d613a" fill-opacity="1"></use></g><g><use xlink:href="#cZuzxhmid" opacity="1" fill="#bb9861" fill-opacity="1"></use></g></g><g><use xlink:href="#b2lpDA4jYq" opacity="1" fill="#85a061" fill-opacity="1"></use></g><g><use xlink:href="#aZ3aTC6f" opacity="1" fill="#98bb4c" fill-opacity="1"></use></g><g><use xlink:href="#b1nHrxozUJ" opacity="1" fill="#a3ce75" fill-opacity="1"></use></g><g><g><use xlink:href="#a29Yrlyzsc" opacity="1" fill="#85a061" fill-opacity="1"></use></g><g><use xlink:href="#e17zmoPu7F" opacity="1" fill="#98bb4c" fill-opacity="1"></use></g><g><use xlink:href="#b1C5jMAAie" opacity="1" fill="#a3ce75" fill-opacity="1"></use></g></g><g><g><use xlink:href="#gx72jWlYP" opacity="1" fill="#85a061" fill-opacity="1"></use></g><g><use xlink:href="#cHyYQjR1S" opacity="1" fill="#98bb4c" fill-opacity="1"></use></g><g><use xlink:href="#b2SPdXsRQX" opacity="1" fill="#a3ce75" fill-opacity="1"></use></g></g><g><use xlink:href="#b4ERZ45rV" opacity="0.4" fill="#7c7c7c" fill-opacity="1"></use></g><g><use xlink:href="#c6STEcZV" opacity="0.43" fill="#898989" fill-opacity="1"></use></g></g><g class="smoke-wrapper s-0"><g><use xlink:href="#aj3ee4qFq" opacity="1" fill="#fee501" fill-opacity="1" class="tag"></use></g><g class="smoke s-0"><g><use xlink:href="#a1ECiKRemS" opacity="1" fill="#909090" fill-opacity="1"></use></g><g><use xlink:href="#c4j8F2Jsm3" opacity="1" fill="#909090" fill-opacity="1"></use></g><g><use xlink:href="#ekW16vDWn" opacity="1" fill="#909090" fill-opacity="1"></use></g><g><use xlink:href="#a2vqH5L7qO" opacity="1" fill="#909090" fill-opacity="1"></use></g></g></g><g class="smoke-wrapper s-1"><g><use xlink:href="#l2lX9QQGQ" opacity="1" fill="#fee501" fill-opacity="1" class="tag"></use></g><g class="smoke s-1"><g><use xlink:href="#dGDRmEsLM" opacity="1" fill="#909090" fill-opacity="1"></use></g><g><use xlink:href="#b2aqtTyx1e" opacity="1" fill="#909090" fill-opacity="1"></use></g><g><use xlink:href="#cM0jIs0Vo" opacity="1" fill="#909090" fill-opacity="1"></use></g><g><use xlink:href="#baxvtoQdu" opacity="1" fill="#909090" fill-opacity="1"></use></g></g></g></g></svg>
