<svg alt="Animation of RV driving down a street" xmlns="http://www.w3.org/2000/svg" xmlns:xlink="http://www.w3.org/1999/xlink" version="1.1" preserveAspectRatio="xMidYMid meet" viewBox="0 0 840 640" height="100%"><defs><path d="M-329.78 244.61L-294.18 244.61L-294.18 272.55L-329.78 272.55L-329.78 244.61Z" id="dJiWOcLjJ"></path><path d="M-25.19 320.91L-25.19 468.58L-147.73 518.78L-147.73 371.88L-25.19 320.91Z" id="a15MnnXtfo"></path><path d="M-147.73 372.09L-221.12 340.43L-221.12 488.76L-147.73 519.28L-147.73 372.09Z" id="c2X1Kk7p6"></path><path d="M-139.29 414.08L-119.29 405.48L-119.29 377.28L-139.29 385.68L-139.29 414.08Z" id="d4EFWbojD"></path><path d="M-137.95 411.95L-137.95 407.97L-125.2 402.35L-120.7 404.45L-137.95 411.95Z" id="b1OJ23pp4"></path><path d="M-120.45 380.23L-125.23 382.08L-125.23 402.45L-120.7 404.45L-120.45 380.23Z" id="c7kS0r0f9"></path><path d="M-137.95 407.97L-125.22 402.48L-125.22 382.08L-137.95 387.19L-137.95 407.97Z" id="cc2ICz6d"></path><path d="M-108.62 401.41L-88.62 392.81L-88.62 364.61L-108.62 373.01L-108.62 401.41Z" id="a1L8JjKOam"></path><path d="M-107.28 399.28L-107.28 395.3L-94.53 389.69L-90.03 391.78L-107.28 399.28Z" id="gzdrRwv14"></path><path d="M-89.78 367.56L-94.56 369.41L-94.56 389.78L-90.03 391.78L-89.78 367.56Z" id="c2PrDmnO2"></path><path d="M-107.28 395.3L-94.56 389.81L-94.56 369.41L-107.28 374.52L-107.28 395.3Z" id="c25lrOJu"></path><path d="M-79.29 389.08L-59.29 380.48L-59.29 352.28L-79.29 360.68L-79.29 389.08Z" id="bkCq0MRj1"></path><path d="M-77.95 386.95L-77.95 382.97L-65.2 377.35L-60.7 379.45L-77.95 386.95Z" id="aEA2INWJ2"></path><path d="M-60.45 355.23L-65.23 357.08L-65.23 377.45L-60.7 379.45L-60.45 355.23Z" id="an8dr7VAh"></path><path d="M-77.95 382.97L-65.22 377.48L-65.22 357.08L-77.95 362.19L-77.95 382.97Z" id="b1zHi9E8XT"></path><path d="M-51.29 377.28L-31.29 368.68L-31.29 340.48L-51.29 348.88L-51.29 377.28Z" id="i5YG8pJJR"></path><path d="M-49.95 375.15L-49.95 371.17L-37.2 365.55L-32.7 367.65L-49.95 375.15Z" id="e4Goro2R6d"></path><path d="M-32.45 343.43L-37.23 345.28L-37.23 365.65L-32.7 367.65L-32.45 343.43Z" id="a1RcXH9k3"></path><path d="M-49.95 371.17L-37.22 365.68L-37.22 345.28L-49.95 350.39L-49.95 371.17Z" id="bnNhQi1yO"></path><path d="M-139.29 454.41L-119.29 445.81L-119.29 417.61L-139.29 426.01L-139.29 454.41Z" id="a8AVS5kUbP"></path><path d="M-137.95 452.28L-137.95 448.3L-125.2 442.69L-120.7 444.78L-137.95 452.28Z" id="c1wbtTv3wd"></path><path d="M-120.45 420.56L-125.23 422.41L-125.23 442.78L-120.7 444.78L-120.45 420.56Z" id="aCA997fd4"></path><path d="M-137.95 448.3L-125.22 442.81L-125.22 422.41L-137.95 427.52L-137.95 448.3Z" id="fUkTPaXYc"></path><path d="M-108.62 441.74L-88.62 433.14L-88.62 404.94L-108.62 413.34L-108.62 441.74Z" id="c2ztY5bf0u"></path><path d="M-107.28 439.62L-107.28 435.64L-94.53 430.02L-90.03 432.12L-107.28 439.62Z" id="a99VS1hge"></path><path d="M-89.78 407.9L-94.56 409.75L-94.56 430.12L-90.03 432.12L-89.78 407.9Z" id="j4nOecidGJ"></path><path d="M-107.28 435.64L-94.56 430.15L-94.56 409.75L-107.28 414.85L-107.28 435.64Z" id="a3CGqXq6c"></path><path d="M-79.29 429.41L-59.29 420.81L-59.29 392.61L-79.29 401.01L-79.29 429.41Z" id="f1a9wuDcLg"></path><path d="M-77.95 427.28L-77.95 423.3L-65.2 417.69L-60.7 419.78L-77.95 427.28Z" id="dvAJ6ZKGG"></path><path d="M-60.45 395.56L-65.23 397.41L-65.23 417.78L-60.7 419.78L-60.45 395.56Z" id="e1a8iOj3qU"></path><path d="M-77.95 423.3L-65.22 417.81L-65.22 397.41L-77.95 402.52L-77.95 423.3Z" id="azoux7he"></path><path d="M-51.29 417.61L-31.29 409.01L-31.29 380.81L-51.29 389.21L-51.29 417.61Z" id="a1RTBmJCBc"></path><path d="M-49.95 415.48L-49.95 411.5L-37.2 405.89L-32.7 407.98L-49.95 415.48Z" id="e52FeUzyd"></path><path d="M-32.45 383.76L-37.23 385.61L-37.23 405.98L-32.7 407.98L-32.45 383.76Z" id="b3T2EHoVA6"></path><path d="M-49.95 411.5L-37.22 406.01L-37.22 385.61L-49.95 390.72L-49.95 411.5Z" id="aG8NvsMrA"></path><path d="M-137.62 495.36L-117.62 486.76L-117.62 458.56L-137.62 466.96L-137.62 495.36Z" id="gpOvygo6V"></path><path d="M-136.28 493.23L-136.28 489.25L-123.53 483.64L-119.03 485.73L-136.28 493.23Z" id="a98S1Ga88R"></path><path d="M-118.78 461.51L-123.56 463.36L-123.56 483.73L-119.03 485.73L-118.78 461.51Z" id="aercMDccc"></path><path d="M-136.28 489.25L-123.56 483.76L-123.56 463.36L-136.28 468.47L-136.28 489.25Z" id="a8IUHhLlQi"></path><path d="M-106.96 482.69L-86.96 474.09L-86.96 445.89L-106.96 454.29L-106.96 482.69Z" id="b1MCGgzKXE"></path><path d="M-105.61 480.57L-105.61 476.59L-92.86 470.97L-88.36 473.07L-105.61 480.57Z" id="eVCP9VxCA"></path><path d="M-88.11 448.85L-92.9 450.7L-92.9 471.07L-88.36 473.07L-88.11 448.85Z" id="g1ldPwFG0r"></path><path d="M-105.61 476.59L-92.89 471.1L-92.89 450.7L-105.61 455.8L-105.61 476.59Z" id="b3ySMQ6Xc"></path><path d="M-77.62 470.36L-57.62 461.76L-57.62 433.56L-77.62 441.96L-77.62 470.36Z" id="c3Kij6MkMJ"></path><path d="M-76.28 468.23L-76.28 464.25L-63.53 458.64L-59.03 460.73L-76.28 468.23Z" id="h3Ja4tJSx4"></path><path d="M-58.78 436.51L-63.56 438.36L-63.56 458.73L-59.03 460.73L-58.78 436.51Z" id="e2clk1Kll"></path><path d="M-76.28 464.25L-63.56 458.76L-63.56 438.36L-76.28 443.47L-76.28 464.25Z" id="k78Fy3rLC"></path><path d="M-49.62 458.56L-29.62 449.96L-29.62 421.76L-49.62 430.16L-49.62 458.56Z" id="b1azoQ3ksU"></path><path d="M-48.28 456.43L-48.28 452.45L-35.53 446.84L-31.03 448.93L-48.28 456.43Z" id="d3vDUB7kXC"></path><path d="M-30.78 424.71L-35.56 426.56L-35.56 446.93L-31.03 448.93L-30.78 424.71Z" id="k2utjrnML"></path><path d="M-48.28 452.45L-35.56 446.96L-35.56 426.56L-48.28 431.67L-48.28 452.45Z" id="dgNoAILUX"></path><path d="M-149.65 383.81L-7.45 321.69L-96.31 282.48L-163.35 313.12L-149.65 383.81Z" id="axFIlj1ut"></path><path d="M-149.59 383.21L-162.28 312.26L-235.45 345.05L-149.59 383.21Z" id="c99XZXeOTy"></path><path d="M-191.94 524.14L-174.99 518.4L-175.16 497.93L-191.63 503.78L-191.94 524.14Z" id="afd4GhRCB"></path><path d="M-191.94 504.9L-177.71 500.14L-185.86 492.55L-200.96 497.63L-191.94 504.9Z" id="dEg1QyhzM"></path><path d="M-192.1 505.12C-193.48 507.48 -197.53 508.27 -201.13 506.88C-204.73 505.49 -206.54 502.44 -205.16 500.08C-203.78 497.72 -199.73 496.93 -196.12 498.32C-192.52 499.7 -190.72 502.75 -192.1 505.12Z" id="bOyOBTFKi"></path><path d="M-175.63 499.65C-177.01 502.01 -181.06 502.81 -184.66 501.42C-188.26 500.03 -190.07 496.98 -188.69 494.62C-187.31 492.25 -183.26 491.46 -179.65 492.85C-176.05 494.24 -174.24 497.29 -175.63 499.65Z" id="d29N0jCgOH"></path><path d="M-191.63 524.14L-205.31 519.64L-205.62 501.55L-191.63 503.76L-191.63 524.14Z" id="aNWPsAlbQ"></path><path d="M-195.3 511.19L-195.5 517.11L-203.38 514.66L-203.38 508.58L-195.3 511.19Z" id="a2tAzSoVs"></path><path d="M-201.6 514.19L-196.67 515.61L-201.02 512.18L-196.38 512.35L-201.87 510.45L-201.6 514.19Z" id="b3Mk5gupn"></path><path d="M-196.96 514.77L-198.61 513.4L-198.46 512.71L-196.7 512.97L-196.96 514.77Z" id="a1A6nJumzM"></path><path d="M-203.38 519.94L-203.38 525.94L-205.24 525.3L-205.24 519.22L-203.38 519.94Z" id="b1I2ahrWiH"></path><path d="M-191.43 523.61L-191.43 529.61L-193.3 528.96L-193.3 522.88L-191.43 523.61Z" id="f1LKppilmp"></path><path d="M-191.63 523.61L-191.63 529.61L-189.77 528.96L-189.77 522.88L-191.63 523.61Z" id="d2rJFGuSnK"></path><path d="M-176.86 518.86L-176.86 524.86L-174.99 524.21L-174.99 518.13L-176.86 518.86Z" id="a3NOuEXkl"></path><path d="M-195.78 501.97L-195.78 501.97L-195.78 502.32L-195.78 502.32L-195.78 501.97Z" id="e4YSs9G4Jm"></path><path d="M-179.99 494.04C-179.11 494.28 -178.4 494.72 -177.86 495.35C-177.32 495.98 -176.93 496.76 -176.7 497.68L-189.78 502.48C-189.91 501.61 -190.23 500.86 -190.73 500.21C-191.22 499.56 -191.9 499.03 -192.76 498.61L-179.99 494.04Z" id="apNlOLqbX"></path><path d="M-454.7 646.51L-210.17 544.95L-210.17 380.8L-454.7 482.54L-454.7 646.51Z" id="d26UOUSWKU"></path><path d="M-450.57 571.78L-334.96 523.4L-334.96 577.29L-450.57 625.25L-450.57 571.78Z" id="d4AIp0sWw8"></path><path d="M-451.15 612.96L-334.52 564.37L-334.76 559.23L-451.01 607.72L-451.15 612.96Z" id="c1hqNKy3MZ"></path><path d="M-330.44 521.04L-214.83 472.66L-214.83 526.56L-330.44 574.51L-330.44 521.04Z" id="aPX88tLmS"></path><path d="M-331.03 562.22L-214.39 513.64L-214.64 508.49L-330.88 556.98L-331.03 562.22Z" id="a1jip8Kqsj"></path><path d="M-450.57 500.59L-334.96 452.21L-334.96 506.11L-450.57 554.06L-450.57 500.59Z" id="cy0lN6maJ"></path><path d="M-451.15 541.77L-334.52 493.19L-334.76 488.04L-451.01 536.53L-451.15 541.77Z" id="bbsLyK3uu0"></path><path d="M-330.82 451.4L-215.21 403.03L-215.21 456.92L-330.82 504.87L-330.82 451.4Z" id="fQSC3NdTA"></path><path d="M-331.4 492.59L-214.77 444L-215.01 438.86L-331.26 487.34L-331.4 492.59Z" id="e4itnUeZEe"></path><path d="M-454.7 645.16L-580.53 592.35L-580.53 428.1L-454.7 482.07L-454.7 645.16Z" id="a11tpj74Pk"></path><path d="M-458.33 571.78L-573.94 523.4L-573.94 577.29L-458.33 625.25L-458.33 571.78Z" id="cECp1enkv"></path><path d="M-457.74 612.96L-574.38 564.37L-574.14 559.23L-457.89 607.72L-457.74 612.96Z" id="a5qrKXL9x"></path><path d="M-459.88 500.59L-575.5 452.21L-575.5 506.11L-459.88 554.06L-459.88 500.59Z" id="c1Ni2XrDSh"></path><path d="M-459.3 541.38L-575.93 492.8L-575.69 487.65L-459.45 536.14L-459.3 541.38Z" id="cjnP0DUlk"></path><path d="M-336.89 328.5L-208.81 381.77L-453.35 483.82L-579.17 429.07L-336.89 328.5Z" id="a6WJcEMvod"></path><path d="M-558.44 432.37L-338.92 341.89L-338.92 333.35L-566.97 428.1L-558.44 432.37Z" id="a1WMOW8x7"></path><path d="M-338.92 342.28L-237.2 386.31L-225.19 381.58L-338.92 333.35L-338.92 342.28Z" id="b7jJru1j1"></path><path d="M-459.35 455.16L-459.35 429.22L-499.98 413.6L-499.98 438.44L-459.35 455.16Z" id="c3hrYQ3sm"></path><path d="" id="b1fR8TPhWl"></path><path d="M-459.35 429.82L-429.93 417.33L-469.83 400.55L-499.98 413.6L-459.35 429.82Z" id="a3o0cPeoYu"></path><path d="M-430.58 443.66L-430.58 417.29L-459.99 430.31L-459.99 455.64L-430.58 443.66Z" id="crrZWAu5h"></path><path d="M-284.69 401.43L-284.69 388.84L-302.45 381.26L-302.45 393.32L-284.69 401.43Z" id="bdi4a3XCc"></path><path d="" id="d8naergNlr"></path><path d="M-284.69 389.13L-271.83 383.07L-289.27 374.92L-302.45 381.26L-284.69 389.13Z" id="fZtzdIvW"></path><path d="M-272.11 395.85L-272.11 383.05L-284.97 389.37L-284.97 401.67L-272.11 395.85Z" id="b12LBnlQdy"></path><path d="M-306.39 408.42L-306.39 395.83L-324.15 388.25L-324.15 400.31L-306.39 408.42Z" id="ai3o9LNsc"></path><path d="" id="aVYnajGHe"></path><path d="M-306.39 396.12L-293.53 390.06L-310.97 381.91L-324.15 388.25L-306.39 396.12Z" id="bzfkyKb0Z"></path><path d="M-293.81 402.84L-293.81 390.04L-306.67 396.36L-306.67 408.66L-293.81 402.84Z" id="b53zTRuhiM"></path><path d="M825.23 229.19L-20.04 584.82L-14.69 491.59L612.56 232.93L825.23 229.19Z" id="b3GBBw76D9"></path><path d="M261.48 433L380.12 388.04L343 373.34L223.88 418.17L261.48 433Z" id="jBTBa8Ms6"></path><path d="M276.18 414.83L279.62 414.83L279.62 418.12L276.18 418.12L276.18 414.83Z" id="adBocNyVg"></path><path d="M363.71 378.99L353.54 385.34L365.07 390.02L363.71 378.99Z" id="a3SVWIlxyN"></path><path d="M346.3 385.9L336.13 392.24L347.66 396.92L346.3 385.9Z" id="aasi2uRgdB"></path><path d="M281.88 410.61L271.71 416.95L283.24 421.63L281.88 410.61Z" id="bpxSeM36K"></path><path d="M382.49 331.88L382.49 374.25L257.12 422.51L257.12 409.65L263.85 376.84L382.49 331.88Z" id="a7fHWdapd"></path><path d="M216.6 388.39C216.6 393.86 217.62 398.31 218.87 398.31C220.12 398.31 221.14 393.86 221.14 388.39C221.14 382.91 220.12 378.47 218.87 378.47C217.62 378.47 216.6 382.91 216.6 388.39Z" id="a5WOJCL2Jw"></path><path d="" id="b26FI8nInI"></path><path d="M263.85 377.21L382.49 332.25L345.37 317.55L226.25 362.38L263.85 377.21Z" id="ce583YakA"></path><path d="M257.12 409.65L219.03 395.08L219.03 407.32L257.12 422.51L257.12 409.65Z" id="ckZopQWFa"></path><path d="M257.12 410.02L219.03 395.45L226.25 362.13L264.44 377.21L257.12 410.02Z" id="e3mY0KrSL1"></path><path d="M382.49 332.25L372 336.41L355.52 384.5L366.2 381L382.49 340.82L382.49 332.25Z" id="aup1S0LLI"></path><path d="M347.83 388.81L363.53 339.84L348.99 344.76L332.08 393.49L347.83 388.81Z" id="c1E37M2g6Q"></path><path d="M309.04 360.26L285.31 412.1L296.76 407.64L326.14 353.8L309.04 360.26Z" id="b1a07zX8P"></path><path d="M338.64 338.58L338.64 328.72L356.84 322.04L356.84 331.93L338.64 338.58Z" id="d17j0bpVku"></path><path d="" id="if9iLVjv6"></path><path d="M338.64 328.5L325.47 323.53L343.33 316.85L356.84 322.04L338.64 328.5Z" id="b1Hkwtf0ql"></path><path d="M325.76 334L325.76 323.51L338.93 328.69L338.93 338.78L325.76 334Z" id="eaTwh7dxJ"></path><path d="M279.73 358.96L279.73 349.1L297.93 342.42L297.93 352.31L279.73 358.96Z" id="a1GRtFHIe7"></path><path d="" id="b1fcE8gCMv"></path><path d="M279.73 348.87L266.56 343.9L284.43 337.22L297.93 342.42L279.73 348.87Z" id="a459LLJHQb"></path><path d="M266.85 354.38L266.85 343.89L280.02 349.07L280.02 359.15L266.85 354.38Z" id="bInJAb3di"></path><path d="M274.05 378.99L274.05 396.92L264.17 400.84L268.71 381L274.05 378.99Z" id="avAvfJsRp"></path><path d="M303.25 367.54L303.25 379.25L283.94 386.89L283.94 375.13L303.25 367.54Z" id="cxrmlDOJ"></path><path d="" id="b9j9Vg7Q8"></path><path d="M349.39 349.36L349.39 366.51L358.27 363.08L358.27 346.18L349.39 349.36Z" id="c8VSS9aFu"></path><path d="M249.2 414.61C249.2 417.14 250.51 419.19 252.13 419.19C253.75 419.19 255.07 417.14 255.07 414.61C255.07 412.08 253.75 410.02 252.13 410.02C250.51 410.02 249.2 412.08 249.2 414.61Z" id="aVuc66r3N"></path><path d="M220.38 403.25C220.38 405.78 221.69 407.83 223.31 407.83C224.93 407.83 226.25 405.78 226.25 403.25C226.25 400.72 224.93 398.67 223.31 398.67C221.69 398.67 220.38 400.72 220.38 403.25Z" id="d21jLO5wwf"></path><path d="" id="b41wI9OA4"></path><path d="M258.03 403.16C258.03 408.64 259.05 413.08 260.3 413.08C261.55 413.08 262.57 408.64 262.57 403.16C262.57 397.69 261.55 393.24 260.3 393.24C259.05 393.24 258.03 397.69 258.03 403.16Z" id="f2StXwiK33"></path><path d="M285.33 408.87L290.16 408.87L290.16 414.8L285.33 414.8L285.33 408.87Z" id="a6ZHlrNK4"></path><path d="M360.42 379.62C360.42 386.18 364.25 391.51 368.96 391.51C373.67 391.51 377.5 386.18 377.5 379.62C377.5 373.05 373.67 367.72 368.96 367.72C364.25 367.72 360.42 373.05 360.42 379.62Z" id="dDETQFrT7"></path><path d="M365.94 379.62C365.94 383.09 367.7 385.91 369.88 385.91C372.05 385.91 373.82 383.09 373.82 379.62C373.82 376.14 372.05 373.33 369.88 373.33C367.7 373.33 365.94 376.14 365.94 379.62Z" id="b5bllsG8fA"></path><path d="M343.01 386.52C343.01 393.09 346.84 398.42 351.55 398.42C356.26 398.42 360.09 393.09 360.09 386.52C360.09 379.96 356.26 374.63 351.55 374.63C346.84 374.63 343.01 379.96 343.01 386.52Z" id="d18N5BD5EN"></path><path d="M348.52 386.52C348.52 389.99 350.29 392.81 352.47 392.81C354.64 392.81 356.41 389.99 356.41 386.52C356.41 383.05 354.64 380.23 352.47 380.23C350.29 380.23 348.52 383.05 348.52 386.52Z" id="esEuDIUlE"></path><path d="M278.59 411.23C278.59 417.8 282.42 423.13 287.13 423.13C291.84 423.13 295.67 417.8 295.67 411.23C295.67 404.66 291.84 399.33 287.13 399.33C282.42 399.33 278.59 404.66 278.59 411.23Z" id="a30lQ7Er97"></path><path d="M284.1 411.23C284.1 414.7 285.87 417.52 288.05 417.52C290.22 417.52 291.99 414.7 291.99 411.23C291.99 407.76 290.22 404.94 288.05 404.94C285.87 404.94 284.1 407.76 284.1 411.23Z" id="cgS2Pjp16"></path><path d="M-73.51 496.92L-66.7 496.92L-66.7 507.97L-73.51 507.97L-73.51 496.92Z" id="a6gUaojhe"></path><path d="M-71.12 498.7L-30.04 519.37L-30.04 523.57L-71.12 502.83L-71.12 498.7Z" id="gabNVQn5E"></path><path d="M-30.04 519.37L-30.04 519.37L-30.04 519.59L-30.04 519.59L-30.04 519.37Z" id="a8Rv1Iv1X"></path><path d="M-33.12 519.48L-30.04 519.48L-30.04 660.33L-33.12 660.33L-33.12 519.48Z" id="dAs6H1Iz0"></path><path d="M-83.1 498.53L-70.81 492.34L-57.47 498.53L-57.47 504.51L-69.06 511.13L-83.1 504.51L-83.1 498.53Z" id="a1uVWKpRAX"></path><path d="M-68.51 501.92L-61.7 501.92L-61.7 512.97L-68.51 512.97L-68.51 501.92Z" id="lgsqaonoW"></path><path d="M-66.12 503.7L-25.04 524.37L-25.04 528.57L-66.12 507.83L-66.12 503.7Z" id="d4FaYqKmMI"></path><path d="M-25.04 524.37L-25.04 524.37L-25.04 524.59L-25.04 524.59L-25.04 524.37Z" id="bhg5VrFYH"></path><path d="M-28.12 524.48L-25.04 524.48L-25.04 665.33L-28.12 665.33L-28.12 524.48Z" id="bwpcQLHsT"></path><path d="M-78.1 503.53L-65.81 497.34L-52.47 503.53L-52.47 509.51L-64.06 516.13L-78.1 509.51L-78.1 503.53Z" id="a3hrbxIvFe"></path><path d="M-63.51 506.92L-56.7 506.92L-56.7 517.97L-63.51 517.97L-63.51 506.92Z" id="auyUGmnnM"></path><path d="M-61.12 508.7L-20.04 529.37L-20.04 533.57L-61.12 512.83L-61.12 508.7Z" id="g11g2gR68"></path><path d="M-20.04 529.37L-20.04 529.37L-20.04 529.59L-20.04 529.59L-20.04 529.37Z" id="c5hoT2MKme"></path><path d="M-23.12 529.48L-20.04 529.48L-20.04 670.33L-23.12 670.33L-23.12 529.48Z" id="e4IcEqEmnE"></path><path d="M-73.1 508.53L-60.81 502.34L-47.47 508.53L-47.47 514.51L-59.06 521.13L-73.1 514.51L-73.1 508.53Z" id="aSKikDqKN"></path></defs><g><g class="object sd--2"><g><use xlink:href="#dJiWOcLjJ" opacity="1" fill="#ace812" fill-opacity="1" class="tag"></use></g><g><g><g><use xlink:href="#a15MnnXtfo" opacity="1" fill="#dd8787" fill-opacity="1"></use></g><g><use xlink:href="#c2X1Kk7p6" opacity="1" fill="#905858" fill-opacity="1"></use></g><g><g><use xlink:href="#d4EFWbojD" opacity="1" fill="#ffffff" fill-opacity="1"></use></g><g><use xlink:href="#b1OJ23pp4" opacity="1" fill="#ffa3a3" fill-opacity="1"></use></g><g><use xlink:href="#c7kS0r0f9" opacity="1" fill="#905858" fill-opacity="1"></use></g><g><use xlink:href="#cc2ICz6d" opacity="1" fill="#42a7b4" fill-opacity="1"></use></g></g><g><g><use xlink:href="#a1L8JjKOam" opacity="1" fill="#ffffff" fill-opacity="1"></use></g><g><use xlink:href="#gzdrRwv14" opacity="1" fill="#ffa3a3" fill-opacity="1"></use></g><g><use xlink:href="#c2PrDmnO2" opacity="1" fill="#905858" fill-opacity="1"></use></g><g><use xlink:href="#c25lrOJu" opacity="1" fill="#42a7b4" fill-opacity="1"></use></g></g><g><g><use xlink:href="#bkCq0MRj1" opacity="1" fill="#ffffff" fill-opacity="1"></use></g><g><use xlink:href="#aEA2INWJ2" opacity="1" fill="#ffa3a3" fill-opacity="1"></use></g><g><use xlink:href="#an8dr7VAh" opacity="1" fill="#905858" fill-opacity="1"></use></g><g><use xlink:href="#b1zHi9E8XT" opacity="1" fill="#42a7b4" fill-opacity="1"></use></g></g><g><g><use xlink:href="#i5YG8pJJR" opacity="1" fill="#ffffff" fill-opacity="1"></use></g><g><use xlink:href="#e4Goro2R6d" opacity="1" fill="#ffa3a3" fill-opacity="1"></use></g><g><use xlink:href="#a1RcXH9k3" opacity="1" fill="#905858" fill-opacity="1"></use></g><g><use xlink:href="#bnNhQi1yO" opacity="1" fill="#42a7b4" fill-opacity="1"></use></g></g><g><g><use xlink:href="#a8AVS5kUbP" opacity="1" fill="#ffffff" fill-opacity="1"></use></g><g><use xlink:href="#c1wbtTv3wd" opacity="1" fill="#ffa3a3" fill-opacity="1"></use></g><g><use xlink:href="#aCA997fd4" opacity="1" fill="#905858" fill-opacity="1"></use></g><g><use xlink:href="#fUkTPaXYc" opacity="1" fill="#42a7b4" fill-opacity="1"></use></g></g><g><g><use xlink:href="#c2ztY5bf0u" opacity="1" fill="#ffffff" fill-opacity="1"></use></g><g><use xlink:href="#a99VS1hge" opacity="1" fill="#ffa3a3" fill-opacity="1"></use></g><g><use xlink:href="#j4nOecidGJ" opacity="1" fill="#905858" fill-opacity="1"></use></g><g><use xlink:href="#a3CGqXq6c" opacity="1" fill="#42a7b4" fill-opacity="1"></use></g></g><g><g><use xlink:href="#f1a9wuDcLg" opacity="1" fill="#ffffff" fill-opacity="1"></use></g><g><use xlink:href="#dvAJ6ZKGG" opacity="1" fill="#ffa3a3" fill-opacity="1"></use></g><g><use xlink:href="#e1a8iOj3qU" opacity="1" fill="#905858" fill-opacity="1"></use></g><g><use xlink:href="#azoux7he" opacity="1" fill="#42a7b4" fill-opacity="1"></use></g></g><g><g><use xlink:href="#a1RTBmJCBc" opacity="1" fill="#ffffff" fill-opacity="1"></use></g><g><use xlink:href="#e52FeUzyd" opacity="1" fill="#ffa3a3" fill-opacity="1"></use></g><g><use xlink:href="#b3T2EHoVA6" opacity="1" fill="#905858" fill-opacity="1"></use></g><g><use xlink:href="#aG8NvsMrA" opacity="1" fill="#42a7b4" fill-opacity="1"></use></g></g><g><g><use xlink:href="#gpOvygo6V" opacity="1" fill="#ffffff" fill-opacity="1"></use></g><g><use xlink:href="#a98S1Ga88R" opacity="1" fill="#ffa3a3" fill-opacity="1"></use></g><g><use xlink:href="#aercMDccc" opacity="1" fill="#905858" fill-opacity="1"></use></g><g><use xlink:href="#a8IUHhLlQi" opacity="1" fill="#42a7b4" fill-opacity="1"></use></g></g><g><g><use xlink:href="#b1MCGgzKXE" opacity="1" fill="#ffffff" fill-opacity="1"></use></g><g><use xlink:href="#eVCP9VxCA" opacity="1" fill="#ffa3a3" fill-opacity="1"></use></g><g><use xlink:href="#g1ldPwFG0r" opacity="1" fill="#905858" fill-opacity="1"></use></g><g><use xlink:href="#b3ySMQ6Xc" opacity="1" fill="#42a7b4" fill-opacity="1"></use></g></g><g><g><use xlink:href="#c3Kij6MkMJ" opacity="1" fill="#ffffff" fill-opacity="1"></use></g><g><use xlink:href="#h3Ja4tJSx4" opacity="1" fill="#ffa3a3" fill-opacity="1"></use></g><g><use xlink:href="#e2clk1Kll" opacity="1" fill="#905858" fill-opacity="1"></use></g><g><use xlink:href="#k78Fy3rLC" opacity="1" fill="#42a7b4" fill-opacity="1"></use></g></g><g><g><use xlink:href="#b1azoQ3ksU" opacity="1" fill="#ffffff" fill-opacity="1"></use></g><g><use xlink:href="#d3vDUB7kXC" opacity="1" fill="#ffa3a3" fill-opacity="1"></use></g><g><use xlink:href="#k2utjrnML" opacity="1" fill="#905858" fill-opacity="1"></use></g><g><use xlink:href="#dgNoAILUX" opacity="1" fill="#42a7b4" fill-opacity="1"></use></g></g><g><g><use xlink:href="#axFIlj1ut" opacity="1" fill="#7a7a7a" fill-opacity="1"></use></g><g><use xlink:href="#c99XZXeOTy" opacity="1" fill="#424242" fill-opacity="1"></use></g></g></g><g><g><g><g><g><use xlink:href="#afd4GhRCB" opacity="1" fill="#005fc9" fill-opacity="1"></use></g><g><use xlink:href="#dEg1QyhzM" opacity="1" fill="#005fc9" fill-opacity="1"></use></g><g><use xlink:href="#bOyOBTFKi" opacity="1" fill="#043871" fill-opacity="1"></use></g><g><use xlink:href="#d29N0jCgOH" opacity="1" fill="#005fc9" fill-opacity="1"></use></g><g><use xlink:href="#aNWPsAlbQ" opacity="1" fill="#043871" fill-opacity="1"></use></g><g><g><use xlink:href="#a2tAzSoVs" opacity="1" fill="#ffffff" fill-opacity="1"></use></g><g><use xlink:href="#b3Mk5gupn" opacity="1" fill="#043871" fill-opacity="1"></use></g><g><use xlink:href="#a1A6nJumzM" opacity="1" fill="#043871" fill-opacity="1"></use></g></g><g><use xlink:href="#b1I2ahrWiH" opacity="1" fill="#043871" fill-opacity="1"></use></g><g><use xlink:href="#f1LKppilmp" opacity="1" fill="#043871" fill-opacity="1"></use></g><g><use xlink:href="#d2rJFGuSnK" opacity="1" fill="#005fc9" fill-opacity="1"></use></g><g><use xlink:href="#a3NOuEXkl" opacity="1" fill="#005fc9" fill-opacity="1"></use></g></g><g><use xlink:href="#e4YSs9G4Jm" opacity="1" fill="#ace902" fill-opacity="1"></use></g><g><use xlink:href="#apNlOLqbX" opacity="1" fill="#043871" fill-opacity="1"></use></g></g></g></g><g><g><g><use xlink:href="#d26UOUSWKU" opacity="1" fill="#a8a8a8" fill-opacity="1"></use></g><g><g><use xlink:href="#d4AIp0sWw8" opacity="1" fill="#6fd8ff" fill-opacity="1"></use></g><g><use xlink:href="#c1hqNKy3MZ" opacity="1" fill="#a8a8a8" fill-opacity="1"></use></g></g><g><g><use xlink:href="#aPX88tLmS" opacity="1" fill="#6fd8ff" fill-opacity="1"></use></g><g><use xlink:href="#a1jip8Kqsj" opacity="1" fill="#a8a8a8" fill-opacity="1"></use></g></g><g><g><use xlink:href="#cy0lN6maJ" opacity="1" fill="#6fd8ff" fill-opacity="1"></use></g><g><use xlink:href="#bbsLyK3uu0" opacity="1" fill="#a8a8a8" fill-opacity="1"></use></g></g><g><g><use xlink:href="#fQSC3NdTA" opacity="1" fill="#6fd8ff" fill-opacity="1"></use></g><g><use xlink:href="#e4itnUeZEe" opacity="1" fill="#a8a8a8" fill-opacity="1"></use></g></g><g><use xlink:href="#a11tpj74Pk" opacity="1" fill="#656565" fill-opacity="1"></use></g><g><g><use xlink:href="#cECp1enkv" opacity="1" fill="#6fd8ff" fill-opacity="1"></use></g><g><use xlink:href="#a5qrKXL9x" opacity="1" fill="#656565" fill-opacity="1"></use></g></g><g><g><use xlink:href="#c1Ni2XrDSh" opacity="1" fill="#6fd8ff" fill-opacity="1"></use></g><g><use xlink:href="#cjnP0DUlk" opacity="1" fill="#656565" fill-opacity="1"></use></g></g><g><use xlink:href="#a6WJcEMvod" opacity="1" fill="#d2d2d2" fill-opacity="1"></use></g><g><use xlink:href="#a1WMOW8x7" opacity="1" fill="#a8a8a8" fill-opacity="1"></use></g><g><use xlink:href="#b7jJru1j1" opacity="1" fill="#656565" fill-opacity="1"></use></g><g><g><use xlink:href="#c3hrYQ3sm" opacity="1" fill="#dddddd" fill-opacity="1"></use></g><g><g><use xlink:href="#b1fR8TPhWl" opacity="1" fill-opacity="0" stroke="#4e0f0f" stroke-width="1" stroke-opacity="1"></use></g></g><g><use xlink:href="#a3o0cPeoYu" opacity="1" fill="#ffffff" fill-opacity="1"></use></g><g><use xlink:href="#crrZWAu5h" opacity="1" fill="#909090" fill-opacity="1"></use></g></g><g><g><use xlink:href="#bdi4a3XCc" opacity="1" fill="#dddddd" fill-opacity="1"></use></g><g><g><use xlink:href="#d8naergNlr" opacity="1" fill-opacity="0" stroke="#4e0f0f" stroke-width="1" stroke-opacity="1"></use></g></g><g><use xlink:href="#fZtzdIvW" opacity="1" fill="#ffffff" fill-opacity="1"></use></g><g><use xlink:href="#b12LBnlQdy" opacity="1" fill="#909090" fill-opacity="1"></use></g></g><g><g><use xlink:href="#ai3o9LNsc" opacity="1" fill="#dddddd" fill-opacity="1"></use></g><g><g><use xlink:href="#aVYnajGHe" opacity="1" fill-opacity="0" stroke="#4e0f0f" stroke-width="1" stroke-opacity="1"></use></g></g><g><use xlink:href="#bzfkyKb0Z" opacity="1" fill="#ffffff" fill-opacity="1"></use></g><g><use xlink:href="#b53zTRuhiM" opacity="1" fill="#909090" fill-opacity="1"></use></g></g></g></g></g></g><g><use xlink:href="#b3GBBw76D9" opacity="1" fill="#656565" fill-opacity="1"></use></g><g></g><g><g class="rv"><g><use xlink:href="#jBTBa8Ms6" opacity="0.48" fill="#545454" fill-opacity="1"></use></g><g class="wheel"><g><use xlink:href="#adBocNyVg" opacity="1" fill="#ace902" fill-opacity="1"></use></g><g><g><use xlink:href="#a3SVWIlxyN" opacity="1" fill="#4e4e4e" fill-opacity="1"></use></g><g><use xlink:href="#aasi2uRgdB" opacity="1" fill="#4e4e4e" fill-opacity="1"></use></g><g><use xlink:href="#bpxSeM36K" opacity="1" fill="#4e4e4e" fill-opacity="1"></use></g></g></g><g><use xlink:href="#a7fHWdapd" opacity="1" fill="#dddddd" fill-opacity="1"></use></g><g><use xlink:href="#a5WOJCL2Jw" opacity="1" fill="#898989" fill-opacity="1"></use></g><g><g><use xlink:href="#b26FI8nInI" opacity="1" fill-opacity="0" stroke="#000000" stroke-width="1" stroke-opacity="1"></use></g></g><g><use xlink:href="#ce583YakA" opacity="1" fill="#ffffff" fill-opacity="1"></use></g><g><use xlink:href="#ckZopQWFa" opacity="1" fill="#909090" fill-opacity="1"></use></g><g><use xlink:href="#e3mY0KrSL1" opacity="1" fill="#6fd8ff" fill-opacity="1"></use></g><g><use xlink:href="#aup1S0LLI" opacity="1" fill="#45beab" fill-opacity="1"></use></g><g><use xlink:href="#c1E37M2g6Q" opacity="1" fill="#c74d4d" fill-opacity="1"></use></g><g><use xlink:href="#b1a07zX8P" opacity="1" fill="#7da732" fill-opacity="1"></use></g><g><g><use xlink:href="#d17j0bpVku" opacity="1" fill="#dddddd" fill-opacity="1"></use></g><g><g><use xlink:href="#if9iLVjv6" opacity="1" fill-opacity="0" stroke="#4e0f0f" stroke-width="1" stroke-opacity="1"></use></g></g><g><use xlink:href="#b1Hkwtf0ql" opacity="1" fill="#ffffff" fill-opacity="1"></use></g><g><use xlink:href="#eaTwh7dxJ" opacity="1" fill="#909090" fill-opacity="1"></use></g></g><g><g><use xlink:href="#a1GRtFHIe7" opacity="1" fill="#dddddd" fill-opacity="1"></use></g><g><g><use xlink:href="#b1fcE8gCMv" opacity="1" fill-opacity="0" stroke="#4e0f0f" stroke-width="1" stroke-opacity="1"></use></g></g><g><use xlink:href="#a459LLJHQb" opacity="1" fill="#ffffff" fill-opacity="1"></use></g><g><use xlink:href="#bInJAb3di" opacity="1" fill="#909090" fill-opacity="1"></use></g></g><g><use xlink:href="#avAvfJsRp" opacity="1" fill="#6fd8ff" fill-opacity="1"></use></g><g><use xlink:href="#cxrmlDOJ" opacity="1" fill="#6fd8ff" fill-opacity="1"></use></g><g><g><use xlink:href="#b9j9Vg7Q8" opacity="1" fill-opacity="0" stroke="#000000" stroke-width="1" stroke-opacity="1"></use></g></g><g><use xlink:href="#c8VSS9aFu" opacity="1" fill="#6fd8ff" fill-opacity="1"></use></g><g><use xlink:href="#aVuc66r3N" opacity="1" fill="#ffffff" fill-opacity="1"></use></g><g><use xlink:href="#d21jLO5wwf" opacity="1" fill="#ffffff" fill-opacity="1"></use></g><g><g><use xlink:href="#b41wI9OA4" opacity="1" fill-opacity="0" stroke="#8c8c8c" stroke-width="1" stroke-opacity="1"></use></g></g><g><use xlink:href="#f2StXwiK33" opacity="1" fill="#898989" fill-opacity="1"></use></g></g><g class="wheel"><g><use xlink:href="#a6ZHlrNK4" opacity="1" fill="#ace901" fill-opacity="1"></use></g><g><g><use xlink:href="#dDETQFrT7" opacity="1" fill="#4e4e4e" fill-opacity="1"></use></g><g><use xlink:href="#b5bllsG8fA" opacity="1" fill="#dddddd" fill-opacity="1"></use></g><g><use xlink:href="#d18N5BD5EN" opacity="1" fill="#4e4e4e" fill-opacity="1"></use></g><g><use xlink:href="#esEuDIUlE" opacity="1" fill="#dddddd" fill-opacity="1"></use></g><g><use xlink:href="#a30lQ7Er97" opacity="1" fill="#4e4e4e" fill-opacity="1"></use></g><g><use xlink:href="#cgS2Pjp16" opacity="1" fill="#dddddd" fill-opacity="1"></use></g></g></g></g><g class="object sd--1"><g><use xlink:href="#a6gUaojhe" opacity="1" fill="#ace803" fill-opacity="1" class="tag"></use></g><g><g><use xlink:href="#gabNVQn5E" opacity="1" fill="#545454" fill-opacity="1"></use></g><g><use xlink:href="#a8Rv1Iv1X" opacity="1" fill="#2b4765" fill-opacity="1"></use></g><g><use xlink:href="#dAs6H1Iz0" opacity="1" fill="#545454" fill-opacity="1"></use></g><g><use xlink:href="#a1uVWKpRAX" opacity="1" fill="#545454" fill-opacity="1"></use></g></g></g><g class="object sd--0"><g><use xlink:href="#lgsqaonoW" opacity="1" fill="#ace803" fill-opacity="1" class="tag"></use></g><g><g><use xlink:href="#d4FaYqKmMI" opacity="1" fill="#545454" fill-opacity="1"></use></g><g><use xlink:href="#bhg5VrFYH" opacity="1" fill="#2b4765" fill-opacity="1"></use></g><g><use xlink:href="#bwpcQLHsT" opacity="1" fill="#545454" fill-opacity="1"></use></g><g><use xlink:href="#a3hrbxIvFe" opacity="1" fill="#545454" fill-opacity="1"></use></g></g></g><g class="object sd-1"><g><use xlink:href="#auyUGmnnM" opacity="1" fill="#ace803" fill-opacity="1" class="tag"></use></g><g><g><use xlink:href="#g11g2gR68" opacity="1" fill="#545454" fill-opacity="1"></use></g><g><use xlink:href="#c5hoT2MKme" opacity="1" fill="#2b4765" fill-opacity="1"></use></g><g><use xlink:href="#e4IcEqEmnE" opacity="1" fill="#545454" fill-opacity="1"></use></g><g><use xlink:href="#aSKikDqKN" opacity="1" fill="#545454" fill-opacity="1"></use></g></g></g></g></svg>
